<svg width="963" height="388" viewBox="0 0 963 388" fill="none" xmlns="http://www.w3.org/2000/svg">
<g clip-path="url(#clip0_135_466)">
<path d="M77.4828 184.64C77.4828 125.783 125.196 78.069 184.054 78.069H312.975C323.52 78.069 332.069 86.6176 332.069 97.1629V226.084C332.069 284.942 284.356 332.655 225.498 332.655H96.5768C86.0315 332.655 77.4828 324.106 77.4828 313.561V184.64Z" fill="#1E1E1E"/>
<g filter="url(#filter0_f_135_466)">
<rect x="120.407" y="120.993" width="168.737" height="168.737" rx="84.3687" fill="url(#paint0_linear_135_466)"/>
</g>
<rect x="120.407" y="120.993" width="168.737" height="168.737" rx="84.3687" fill="url(#paint1_linear_135_466)"/>
</g>
<path d="M80.0287 184.64C80.0287 127.189 126.602 80.6148 184.054 80.6148H312.975C322.114 80.6148 329.523 88.0237 329.523 97.1629V226.084C329.523 283.536 282.949 330.109 225.498 330.109H96.5768C87.4375 330.109 80.0287 322.7 80.0287 313.561V184.64Z" stroke="url(#paint2_linear_135_466)" stroke-width="5.09172"/>
<path d="M506.693 253.842C497.033 253.842 487.968 252.137 479.497 248.728C471.025 245.318 463.561 240.592 457.104 234.548C450.647 228.453 445.611 221.402 441.995 213.396C438.379 205.389 436.571 196.788 436.571 187.594C436.571 178.347 438.379 169.721 441.995 161.715C445.662 153.656 450.699 146.605 457.104 140.562C463.561 134.466 470.999 129.714 479.419 126.305C487.891 122.896 496.93 121.191 506.538 121.191C514.39 121.191 521.854 122.302 528.931 124.523C536.059 126.744 542.154 129.662 547.216 133.278L536.369 154.586C532.908 151.848 528.698 149.705 523.739 148.155C518.78 146.605 513.589 145.831 508.165 145.831C501.812 145.831 495.923 146.889 490.499 149.007C485.127 151.125 480.426 154.07 476.397 157.84C472.42 161.611 469.32 166.028 467.099 171.09C464.878 176.152 463.768 181.628 463.768 187.516C463.768 193.405 464.878 198.88 467.099 203.943C469.32 209.005 472.42 213.421 476.397 217.192C480.426 220.963 485.127 223.907 490.499 226.025C495.923 228.143 501.812 229.202 508.165 229.202C513.589 229.202 518.78 228.427 523.739 226.878C528.698 225.328 532.908 223.184 536.369 220.446L547.216 241.754C542.361 245.267 536.395 248.159 529.318 250.432C522.241 252.705 514.7 253.842 506.693 253.842ZM564.208 251.362V118.092H587.995V180.853C591.043 177.444 594.84 174.706 599.385 172.64C603.983 170.573 609.045 169.54 614.572 169.54C620.667 169.54 626.014 170.883 630.611 173.569C635.26 176.204 638.902 179.897 641.536 184.649C644.17 189.35 645.488 194.851 645.488 201.153V251.362H621.7V206.19C621.7 200.508 620.202 196.091 617.206 192.94C614.262 189.737 610.207 188.136 605.042 188.136C601.529 188.136 598.481 188.859 595.899 190.306C593.368 191.7 591.405 193.637 590.01 196.117C588.667 198.545 587.995 201.308 587.995 204.408V251.362H564.208ZM711.474 253.842C702.744 253.842 694.867 252.059 687.842 248.495C680.817 244.879 675.238 239.92 671.105 233.619C666.973 227.265 664.907 219.956 664.907 211.691C664.907 203.426 666.947 196.143 671.028 189.841C675.16 183.487 680.739 178.528 687.764 174.964C694.841 171.348 702.744 169.54 711.474 169.54C720.255 169.54 728.158 171.348 735.184 174.964C742.209 178.528 747.762 183.487 751.842 189.841C755.975 196.143 758.041 203.426 758.041 211.691C758.041 219.956 755.975 227.265 751.842 233.619C747.762 239.92 742.209 244.879 735.184 248.495C728.158 252.059 720.255 253.842 711.474 253.842ZM711.551 233.541C715.58 233.541 719.248 232.611 722.554 230.752C725.86 228.892 728.468 226.335 730.38 223.081C732.291 219.775 733.247 215.978 733.247 211.691C733.247 207.404 732.291 203.633 730.38 200.378C728.468 197.072 725.86 194.49 722.554 192.63C719.248 190.771 715.58 189.841 711.551 189.841C707.471 189.841 703.777 190.771 700.471 192.63C697.217 194.49 694.634 197.072 692.723 200.378C690.812 203.633 689.856 207.404 689.856 211.691C689.856 215.978 690.812 219.775 692.723 223.081C694.634 226.335 697.217 228.892 700.471 230.752C703.777 232.611 707.471 233.541 711.551 233.541ZM778.799 291.653V172.02H802.586V181.705C805.789 177.831 809.766 174.835 814.519 172.717C819.271 170.599 824.385 169.54 829.86 169.54C837.505 169.54 844.298 171.374 850.238 175.042C856.23 178.709 860.931 183.72 864.34 190.073C867.801 196.427 869.531 203.633 869.531 211.691C869.531 219.646 867.827 226.826 864.418 233.231C861.008 239.585 856.334 244.621 850.393 248.34C844.505 252.008 837.841 253.842 830.403 253.842C824.979 253.842 819.865 252.731 815.061 250.51C810.257 248.237 806.099 245.034 802.586 240.902V291.653H778.799ZM823.352 233.619C827.484 233.619 831.126 232.689 834.277 230.829C837.479 228.918 839.985 226.335 841.793 223.081C843.601 219.775 844.505 216.004 844.505 211.768C844.505 207.533 843.575 203.762 841.715 200.456C839.856 197.15 837.35 194.541 834.199 192.63C831.048 190.719 827.432 189.763 823.352 189.763C819.271 189.763 815.603 190.719 812.349 192.63C809.147 194.541 806.615 197.15 804.756 200.456C802.896 203.71 801.966 207.481 801.966 211.768C801.966 215.952 802.87 219.697 804.678 223.003C806.538 226.309 809.095 228.918 812.349 230.829C815.603 232.689 819.271 233.619 823.352 233.619Z" fill="white"/>
<defs>
<filter id="filter0_f_135_466" x="63.6501" y="64.2362" width="282.252" height="282.252" filterUnits="userSpaceOnUse" color-interpolation-filters="sRGB">
<feFlood flood-opacity="0" result="BackgroundImageFix"/>
<feBlend mode="normal" in="SourceGraphic" in2="BackgroundImageFix" result="shape"/>
<feGaussianBlur stdDeviation="28.3786" result="effect1_foregroundBlur_135_466"/>
</filter>
<linearGradient id="paint0_linear_135_466" x1="204.776" y1="120.993" x2="204.776" y2="289.731" gradientUnits="userSpaceOnUse">
<stop stop-color="#E4A430"/>
<stop offset="1" stop-color="#CB662F"/>
</linearGradient>
<linearGradient id="paint1_linear_135_466" x1="204.776" y1="120.993" x2="204.776" y2="289.731" gradientUnits="userSpaceOnUse">
<stop offset="0.05" stop-color="#FF463F"/>
<stop offset="0.76" stop-color="#CB662F"/>
<stop offset="1" stop-color="#E4A430"/>
</linearGradient>
<linearGradient id="paint2_linear_135_466" x1="204.776" y1="78.069" x2="204.776" y2="332.655" gradientUnits="userSpaceOnUse">
<stop stop-color="#BCBCBC"/>
<stop offset="1" stop-color="#BCBCBC" stop-opacity="0.17"/>
</linearGradient>
<clipPath id="clip0_135_466">
<path d="M77.4828 184.64C77.4828 125.783 125.196 78.069 184.054 78.069H312.975C323.52 78.069 332.069 86.6176 332.069 97.1629V226.084C332.069 284.942 284.356 332.655 225.498 332.655H96.5768C86.0315 332.655 77.4828 324.106 77.4828 313.561V184.64Z" fill="white"/>
</clipPath>
</defs>
</svg>
