<svg width="256" height="255" viewBox="0 0 256 255" fill="none" xmlns="http://www.w3.org/2000/svg">
<g clip-path="url(#clip0_135_461)">
<path d="M0.482788 106.64C0.482788 47.7825 48.1962 0.0689697 107.054 0.0689697H235.975C246.52 0.0689697 255.069 8.61763 255.069 19.1629V148.084C255.069 206.942 207.356 254.655 148.498 254.655H19.5768C9.03146 254.655 0.482788 246.106 0.482788 235.561V106.64Z" fill="#1E1E1E"/>
<g filter="url(#filter0_f_135_461)">
<rect x="43.4072" y="42.9933" width="168.737" height="168.737" rx="84.3687" fill="url(#paint0_linear_135_461)"/>
</g>
<rect x="43.4072" y="42.9933" width="168.737" height="168.737" rx="84.3687" fill="url(#paint1_linear_135_461)"/>
</g>
<path d="M3.02865 106.64C3.02865 49.1886 49.6023 2.61483 107.054 2.61483H235.975C245.114 2.61483 252.523 10.0237 252.523 19.1629V148.084C252.523 205.536 205.949 252.109 148.498 252.109H19.5768C10.4375 252.109 3.02865 244.7 3.02865 235.561V106.64Z" stroke="url(#paint2_linear_135_461)" stroke-width="5.09172"/>
<defs>
<filter id="filter0_f_135_461" x="-13.3499" y="-13.7638" width="282.252" height="282.252" filterUnits="userSpaceOnUse" color-interpolation-filters="sRGB">
<feFlood flood-opacity="0" result="BackgroundImageFix"/>
<feBlend mode="normal" in="SourceGraphic" in2="BackgroundImageFix" result="shape"/>
<feGaussianBlur stdDeviation="28.3786" result="effect1_foregroundBlur_135_461"/>
</filter>
<linearGradient id="paint0_linear_135_461" x1="127.776" y1="42.9933" x2="127.776" y2="211.731" gradientUnits="userSpaceOnUse">
<stop stop-color="#E4A430"/>
<stop offset="1" stop-color="#CB662F"/>
</linearGradient>
<linearGradient id="paint1_linear_135_461" x1="127.776" y1="42.9933" x2="127.776" y2="211.731" gradientUnits="userSpaceOnUse">
<stop offset="0.05" stop-color="#FF463F"/>
<stop offset="0.76" stop-color="#CB662F"/>
<stop offset="1" stop-color="#E4A430"/>
</linearGradient>
<linearGradient id="paint2_linear_135_461" x1="127.776" y1="0.0689697" x2="127.776" y2="254.655" gradientUnits="userSpaceOnUse">
<stop stop-color="#BCBCBC"/>
<stop offset="1" stop-color="#BCBCBC" stop-opacity="0.17"/>
</linearGradient>
<clipPath id="clip0_135_461">
<path d="M0.482788 106.64C0.482788 47.7825 48.1962 0.0689697 107.054 0.0689697H235.975C246.52 0.0689697 255.069 8.61763 255.069 19.1629V148.084C255.069 206.942 207.356 254.655 148.498 254.655H19.5768C9.03146 254.655 0.482788 246.106 0.482788 235.561V106.64Z" fill="white"/>
</clipPath>
</defs>
</svg>
